<svg id="Layer_1" data-name="Layer 1" xmlns="http://www.w3.org/2000/svg" xmlns:xlink="http://www.w3.org/1999/xlink" viewBox="0 0 156.8 156.8"><defs><linearGradient id="linear-gradient" x1="34.96" y1="676.44" x2="145.42" y2="740.21" gradientTransform="translate(0 -634)" gradientUnits="userSpaceOnUse"><stop offset="0" stop-color="#7341f1"/><stop offset="0.12" stop-color="#7747f1" stop-opacity="0.97"/><stop offset="0.29" stop-color="#8357f2" stop-opacity="0.89"/><stop offset="0.49" stop-color="#9772f4" stop-opacity="0.76"/><stop offset="0.72" stop-color="#b398f6" stop-opacity="0.57"/><stop offset="0.96" stop-color="#d6c8f9" stop-opacity="0.34"/><stop offset="1" stop-color="#dcd0fa" stop-opacity="0.3"/></linearGradient><linearGradient id="linear-gradient-2" x1="37.7" y1="79.6" x2="156.8" y2="79.6" gradientTransform="matrix(1, 0, 0, -1, 0, 158)" gradientUnits="userSpaceOnUse"><stop offset="0" stop-color="#0c008c"/><stop offset="1" stop-color="#e6e6ff"/></linearGradient><clipPath id="clip-path"><polygon points="53.9 37.7 37.7 37.7 37.7 53.9 37.7 70.3 37.7 86.5 37.7 119.1 53.9 119.1 53.9 86.5 156.8 86.5 156.8 70.3 53.9 70.3 53.9 53.9 156.8 53.9 156.8 37.7 53.9 37.7" style="fill:none"/></clipPath></defs><title>carrieforde_logo-color-2019</title><polygon points="156.8 21.5 156.8 0 21.5 0 0 0 0 21.5 0 135.2 0 156.8 21.5 156.8 156.8 156.8 156.8 135.2 21.5 135.2 21.5 21.5 156.8 21.5" style="fill:#102a43"/><polygon points="53.9 37.7 37.7 37.7 37.7 53.9 37.7 70.3 37.7 86.5 37.7 119.1 53.9 119.1 53.9 86.5 156.8 86.5 156.8 70.3 53.9 70.3 53.9 53.9 156.8 53.9 156.8 37.7 53.9 37.7" style="fill:url(#linear-gradient)"/><polygon id="SVGID" points="53.9 37.7 37.7 37.7 37.7 53.9 37.7 70.3 37.7 86.5 37.7 119.1 53.9 119.1 53.9 86.5 156.8 86.5 156.8 70.3 53.9 70.3 53.9 53.9 156.8 53.9 156.8 37.7 53.9 37.7" style="fill:url(#linear-gradient-2)"/><g style="clip-path:url(#clip-path)"><rect x="37.7" y="37.7" width="119.1" height="81.4" style="fill:url(#linear-gradient-2)"/></g><rect x="70.4" y="102.1" width="86.4" height="16.2" style="fill:#d9e2ec"/></svg>